<svg width="20" height="20" viewBox="0 0 20 20" fill="none" xmlns="http://www.w3.org/2000/svg">
<mask id="mask0_23_35" style="mask-type:alpha" maskUnits="userSpaceOnUse" x="0" y="2" width="20" height="16">
<path fill-rule="evenodd" clip-rule="evenodd" d="M19.2308 7.69231H0.769287V4.61539C0.769287 3.34088 1.80248 2.30769 3.07698 2.30769H4.61544V4.23077C4.61544 4.86802 5.13204 5.38462 5.76929 5.38462C6.40654 5.38462 6.92313 4.86802 6.92313 4.23077V2.30769H13.077V4.23077C13.077 4.86802 13.5936 5.38462 14.2308 5.38462C14.8681 5.38462 15.3847 4.86802 15.3847 4.23077V2.30769H16.9231C18.1976 2.30769 19.2308 3.34088 19.2308 4.61539V7.69231ZM19.2308 10V15.3846C19.2308 16.6591 18.1976 17.6923 16.9231 17.6923H3.07698C1.80248 17.6923 0.769287 16.6591 0.769287 15.3846V10H19.2308Z" fill="white"/>
</mask>
<g mask="url(#mask0_23_35)">
<rect width="20" height="20" fill="#CDCDD7"/>
</g>
</svg>
