<svg width="20" height="20" viewBox="0 0 20 20" fill="none" xmlns="http://www.w3.org/2000/svg">
<mask id="mask0_22_16" style="mask-type:alpha" maskUnits="userSpaceOnUse" x="1" y="1" width="18" height="18">
<path fill-rule="evenodd" clip-rule="evenodd" d="M14.2313 10.7696V10.0003C14.2313 7.66375 12.3371 5.76958 10.0005 5.76958C7.6639 5.76958 5.76972 7.66375 5.76972 10.0003C5.76972 12.3369 7.6639 14.2311 10.0005 14.2311C11.0984 14.2311 12.0986 13.8129 12.8505 13.1272C13.4825 13.8063 14.3842 14.2311 15.3851 14.2311C17.2969 14.2311 18.8466 12.6813 18.8466 10.7696V10.0003C18.8464 5.88938 16.0142 2.32041 12.0109 1.38615C8.00758 0.451896 3.88822 2.39859 2.06837 6.08472C0.248512 9.77085 1.20781 14.2249 4.38373 16.835C7.35571 19.2776 11.5599 19.5152 14.7811 17.4442C15.3171 17.0996 15.4723 16.3857 15.1277 15.8496C14.783 15.3136 14.0691 15.1585 13.5331 15.5031C11.1534 17.0331 8.04551 16.8574 5.84897 15.0522C3.50155 13.123 2.79251 9.83084 4.13762 7.10631C5.48272 4.38178 8.52746 2.94292 11.4864 3.63346C14.4454 4.324 16.5388 6.96193 16.5389 10.0004V10.7696C16.5389 11.4068 16.0224 11.9234 15.3851 11.9234C14.7479 11.9234 14.2313 11.4068 14.2313 10.7696ZM11.9236 10.0003C11.9236 11.0624 11.0626 11.9234 10.0005 11.9234C8.93844 11.9234 8.07744 11.0624 8.07744 10.0003C8.07744 8.93826 8.93844 8.07727 10.0005 8.07727C11.0626 8.07727 11.9236 8.93826 11.9236 10.0003Z" fill="white"/>
</mask>
<g mask="url(#mask0_22_16)">
<path d="M20 0H0V20H20V0Z" fill="#CDCDD7"/>
</g>
</svg>
