<svg width="20" height="20" viewBox="0 0 20 20" fill="none" xmlns="http://www.w3.org/2000/svg">
<mask id="mask0_22_11" style="mask-type:alpha" maskUnits="userSpaceOnUse" x="1" y="1" width="18" height="18">
<path fill-rule="evenodd" clip-rule="evenodd" d="M10.0001 18.4617C5.32693 18.4617 1.53857 14.6733 1.53857 10.0001C1.53857 5.32693 5.32693 1.53857 10.0001 1.53857C14.6733 1.53857 18.4617 5.32693 18.4617 10.0001C18.4617 14.6733 14.6733 18.4617 10.0001 18.4617ZM5.54052 14.2406C5.83502 13.5562 6.51545 13.077 7.30781 13.077H12.6924C13.4848 13.077 14.1652 13.5562 14.4597 14.2406C15.5096 13.1368 16.154 11.6437 16.154 10.0001C16.154 6.60144 13.3988 3.84627 10.0001 3.84627C6.60144 3.84627 3.84627 6.60144 3.84627 10.0001C3.84627 11.6437 4.49063 13.1368 5.54052 14.2406ZM7.3078 9.23088C7.3078 10.7178 8.51319 11.9232 10.0001 11.9232C11.487 11.9232 12.6924 10.7178 12.6924 9.23088C12.6924 7.74396 11.487 6.53857 10.0001 6.53857C8.51319 6.53857 7.3078 7.74396 7.3078 9.23088Z" fill="white"/>
</mask>
<g mask="url(#mask0_22_11)">
<path d="M20 0H0V20H20V0Z" fill="#CDCDD7"/>
</g>
</svg>
