<svg width="20" height="20" viewBox="0 0 20 20" fill="none" xmlns="http://www.w3.org/2000/svg">
<mask id="mask0_22_26" style="mask-type:alpha" maskUnits="userSpaceOnUse" x="1" y="1" width="18" height="19">
<path fill-rule="evenodd" clip-rule="evenodd" d="M4.99979 8.46165V6.53857C4.99979 3.77715 7.23837 1.53857 9.99979 1.53857C12.7612 1.53857 14.9998 3.77715 14.9998 6.53857V8.46165H15.3844C16.8713 8.46165 18.0767 9.66704 18.0767 11.154V16.5386C18.0767 18.0255 16.8713 19.2309 15.3844 19.2309H4.61516C3.12824 19.2309 1.92285 18.0255 1.92285 16.5386V11.154C1.92285 9.66704 3.12824 8.46165 4.61516 8.46165H4.99979ZM12.6921 8.46165V6.53857C12.6921 5.05165 11.4867 3.84627 9.99979 3.84627C8.51287 3.84627 7.30749 5.05165 7.30749 6.53857V8.46165H12.6921Z" fill="white"/>
</mask>
<g mask="url(#mask0_22_26)">
<path d="M20 0H0V20H20V0Z" fill="#CDCDD7"/>
</g>
</svg>
